<svg xmlns="http://www.w3.org/2000/svg" width="256" height="256"><path fill="#1976D2" fill-opacity=".016" fill-rule="evenodd" d="M0 128.004v128.004l128.25-.254 128.25-.254.254-127.75L257.008 0H0v128.004m.485.496c0 70.4.119 99.053.265 63.672.146-35.38.146-92.98 0-128C.604 29.153.485 58.1.485 128.5"/><path fill="#1976D2" fill-opacity=".271" fill-rule="evenodd" d="M50.217 43.75C49.162 45.263 40.295 60 30.512 76.5 20.729 93 10.071 110.934 6.828 116.354 3.584 121.773.834 126.555.715 126.98c-.118.424 11.26 20.17 25.285 43.879l25.5 43.107 23.134.017 23.134.017 9.973-16.25c5.485-8.937 16.168-26.375 23.74-38.75 20.594-33.657 46.63-75.34 47.9-76.688.842-.894 4.524 4.46 14.869 21.62C201.813 116.477 208 127.02 208 127.36c0 .723-23.34 39.797-26.256 43.956l-1.974 2.816-3.168-4.816c-1.742-2.649-6.303-10.091-10.135-16.537-3.832-6.447-7.192-11.729-7.467-11.738-.275-.008-5.598 8.29-11.829 18.44l-11.329 18.456 9.73 16.282c5.351 8.954 10.406 17.068 11.234 18.031 1.354 1.575 3.811 1.746 24.599 1.707l23.095-.043 23-39.063c12.65-21.484 24.448-41.283 26.219-43.996 1.77-2.714 2.873-4.721 2.451-4.46-.421.26-5.873-8.159-12.114-18.711a28595.052 28595.052 0 0 0-25.452-42.914L204.5 41.04l-23.64-.02-23.641-.02-20.946 34.25C99.599 135.215 75.517 174 74.956 174c-.468 0-26.875-43.863-27.787-46.155-.495-1.243 27.076-46.853 28.289-46.798.573.026 3.64 4.413 6.815 9.75 9.371 15.751 13.521 22.287 14.284 22.502.395.11 5.79-7.899 11.988-17.799l11.271-18-1.913-3c-1.052-1.65-6.073-9.861-11.158-18.246L97.5 41.009l-22.682-.005L52.136 41l-1.919 2.75"/><path fill="#1976D2" fill-opacity=".759" fill-rule="evenodd" d="M154.637 46.25c-1.836 2.888-11.553 18.75-21.593 35.25-10.041 16.5-22.177 36.3-26.97 44-4.792 7.7-12.029 19.4-16.081 26-4.052 6.6-10.125 16.275-13.496 21.5C68.939 184.714 52 212.698 52 213.471c0 .311 10.226.446 22.724.298l22.724-.269 14.526-23.636a32294.295 32294.295 0 0 0 23.932-39C157.31 115.902 179.384 81 180.092 81 181.216 81 208 125.449 208 127.315c0 .88-6.242 11.956-13.871 24.614-12.736 21.129-13.771 23.206-12.645 25.378 2.911 5.61 21.782 35.69 22.369 35.655.356-.021 11.35-18.133 24.432-40.25 13.081-22.116 24.483-41.342 25.336-42.723 1.741-2.816 2.705-1.04-33.801-62.239L203.863 41h-45.888l-3.338 5.25"/><path fill="#1976D2" fill-opacity=".614" fill-rule="evenodd" d="M135 79.13c-27.974 46.178-27.785 45.853-25.422 43.62 1.769-1.673 1.907-1.651 3.101.5.688 1.237 1.266 1.661 1.286.941.019-.72.485-1.031 1.035-.691.55.34 1 .109 1-.512 0-.632.726-.405 1.645.514 1.026 1.026 1.884 1.261 2.278.623.562-.91.623 22.885.064 25.375-.123.55-.14 1.225-.037 1.5.104.275.352 1.746.553 3.268.254 1.931.007 2.553-.819 2.058-.763-.458-.722-.14.115.893.873 1.078.955 1.815.25 2.251-.577.356-1.049 1.323-1.049 2.148 0 .825.443 1.226.985.891 1.307-.808.59 6.548-.912 9.355-.776 1.449-.803 2.136-.085 2.136.59 0 .333 1.107-.58 2.5-.901 1.375-1.4 2.5-1.109 2.5 1.182 0 6.701-10.191 6.071-11.21-.373-.604-.262-.841.248-.526.51.315 3.088-2.878 5.728-7.096 2.641-4.217 10.056-16.036 16.478-26.264a8831.62 8831.62 0 0 0 22.616-36.25C174.457 87.944 179.706 80 180.105 80c.398 0 1.828 1.912 3.178 4.25 1.349 2.338 7.517 12.566 13.705 22.73s11.454 19.008 11.702 19.654c.38.99-20.123 36.316-25.84 44.52-1.018 1.46-1.85 3.078-1.85 3.596 0 .517 5.127 9.335 11.393 19.596l11.393 18.656 15.263-25.751a18185.117 18185.117 0 0 1 25.413-42.74l10.15-16.988-5.782-10.012c-3.181-5.506-14.485-24.636-25.122-42.511l-19.34-32.5-23.434-.256-23.434-.255L135 79.13m-25.128 45.62c-1.243 1.586-1.208 1.621.378.378 1.666-1.307 2.195-2.128 1.372-2.128-.207 0-.995.787-1.75 1.75M104 130c-.589 1.1-.845 2-.57 2s.981-.9 1.57-2c.589-1.1.845-2 .57-2s-.981.9-1.57 2"/></svg>